# xmcd CD database file
#
# Track frame offsets:
#	150
#	42998
#	50157
#	59509
#	70342
#	84392
#	89222
#	100589
#	110058
#	130921
#	162817
#	183265
#	190797
#	207966
#	228559
#	254141
#	258874
#	277166
#	290535
#
# Disc length: 4175
# Revision: 2
# Processed by: cddbd v1.5.2PL0 Copyright (c) Steve Scherf et al.
# Submitted via: cddb.el 1.0 (Emacs 25.1.50.2)
#
DISCID=28104d13
DTITLE=The Residents - 80 Aching Orphans (2)
DYEAR=2017
DGENRE=
TTITLE0=Kaw-Liga (Prairie Mix)
TTITLE1=Yummy Yummy Yummy
TTITLE2=In San Francisco
TTITLE3=Constantinople
TTITLE4=Jailhouse Rock
TTITLE5=Where Is She?
TTITLE6=Easter Woman (Live)
TTITLE7=Insincere
TTITLE8=Hard And Tenderly
TTITLE9=Migration
TTITLE10=Satisfaction
TTITLE11=Kamikaze Lady
TTITLE12=Burning Love (Live TV Version)
TTITLE13=The Aging Musician
TTITLE14=Six More Miles
TTITLE15=The Simple Song
TTITLE16=Safety Is A Cootie Wootie
TTITLE17=Tourniquet Of Roses
TTITLE18=The Angry Angakok
EXTD=
EXTT0=
EXTT1=
EXTT2=
EXTT3=
EXTT4=
EXTT5=
EXTT6=
EXTT7=
EXTT8=
EXTT9=
EXTT10=
EXTT11=
EXTT12=
EXTT13=
EXTT14=
EXTT15=
EXTT16=
EXTT17=
EXTT18=
PLAYORDER=
